<?xml version="1.0" encoding="iso-8859-1"?>
<!-- Generator: Adobe Illustrator 19.0.0, SVG Export Plug-In . SVG Version: 6.00 Build 0)  -->
<svg version="1.1" id="Layer_1" xmlns="http://www.w3.org/2000/svg" xmlns:xlink="http://www.w3.org/1999/xlink" x="0px" y="0px"
	 viewBox="0 0 512 512" style="enable-background:new 0 0 512 512;" xml:space="preserve">
<rect x="8.294" y="114.454" style="fill:#F9D84E;" width="495.413" height="283.093"/>
<polygon style="fill:#FFC20D;" points="25.987,379.853 25.987,114.454 8.294,114.454 8.294,397.546 503.706,397.546 
	503.706,379.853 "/>
<polygon style="fill:#4E5058;" points="8.294,114.454 8.294,167.533 8.294,220.613 43.68,167.533 468.32,167.533 503.706,220.613 
	503.706,167.533 503.706,114.454 "/>
<polygon style="fill:#383A43;" points="25.987,167.533 25.987,114.454 8.294,114.454 8.294,167.533 8.294,220.613 25.987,194.073 
	"/>
<g>
	<path style="fill:#D3D3D5;" d="M415.24,362.16h-70.773V220.613h70.773c19.543,0,35.387,15.843,35.387,35.387v70.773
		C450.626,346.317,434.783,362.16,415.24,362.16z"/>
	<path style="fill:#D3D3D5;" d="M96.76,362.16h70.773V220.613H96.76c-19.543,0-35.387,15.843-35.387,35.387v70.773
		C61.374,346.317,77.217,362.16,96.76,362.16z"/>
</g>
<path style="fill:#E9E9EA;" d="M300.233,344.467h-88.467c-4.886,0-8.847-3.961-8.847-8.847v-88.467c0-4.886,3.961-8.847,8.847-8.847
	h88.467c4.886,0,8.847,3.961,8.847,8.847v88.467C309.08,340.505,305.119,344.467,300.233,344.467z"/>
<path style="fill:#45CAE0;" d="M309.08,273.693H202.92v-26.54c0-4.886,3.961-8.847,8.847-8.847h88.467
	c4.886,0,8.847,3.961,8.847,8.847V273.693z"/>
<g>
	<path style="fill:#4E5058;" d="M344.467,238.307v35.387c9.772,0,17.693,7.921,17.693,17.693s-7.921,17.693-17.693,17.693v35.387
		c29.316,0,53.08-23.764,53.08-53.08C397.546,262.071,373.782,238.307,344.467,238.307z"/>
	<path style="fill:#4E5058;" d="M149.84,291.387c0-9.772,7.921-17.693,17.693-17.693v-35.387c-29.316,0-53.08,23.764-53.08,53.08
		c0,29.316,23.764,53.08,53.08,53.08V309.08C157.761,309.08,149.84,301.159,149.84,291.387z"/>
</g>
<path d="M503.706,106.16H8.294c-4.58,0-8.294,3.713-8.294,8.294v283.093c0,4.58,3.713,8.294,8.294,8.294h495.413
	c4.58,0,8.294-3.713,8.294-8.294V114.454C512,109.873,508.287,106.16,503.706,106.16z M16.587,389.253V223.125l31.532-47.298H123.3
	c4.58,0,8.294-3.713,8.294-8.294s-3.713-8.294-8.294-8.294H43.68c-2.773,0-5.363,1.386-6.9,3.693l-20.192,30.288v-70.474h478.825
	v70.474l-20.192-30.288c-1.538-2.307-4.127-3.693-6.9-3.693H158.687c-4.58,0-8.294,3.713-8.294,8.294s3.713,8.294,8.294,8.294
	h305.194l31.532,47.298v166.128H16.587z"/>
<path d="M415.24,212.32h-70.773c-4.58,0-8.294,3.713-8.294,8.294V362.16c0,4.58,3.713,8.294,8.294,8.294h70.773
	c24.085,0,43.68-19.595,43.68-43.68V256C458.92,231.915,439.325,212.32,415.24,212.32z M353.129,257.659v-10.206
	c20.547,4.057,36.124,22.264,36.124,43.934c0,21.67-15.577,39.876-36.124,43.934v-10.206c15.006-3.885,26.172-17.603,26.172-33.728
	S368.135,261.544,353.129,257.659z M362.713,291.387c0,7.03-4.062,13.169-9.952,16.209v-32.417
	C358.651,278.217,362.713,284.357,362.713,291.387z M442.333,326.773c0,14.939-12.154,27.093-27.093,27.093H352.76v-1.694
	c29.902-4.078,53.08-29.846,53.08-60.785s-23.178-56.707-53.08-60.785v-1.694h62.479c14.939,0,27.093,12.154,27.093,27.093V326.773z
	"/>
<path d="M175.827,220.613c0-4.58-3.713-8.294-8.294-8.294H96.76c-24.085,0-43.68,19.595-43.68,43.68v70.773
	c0,24.085,19.595,43.68,43.68,43.68h70.773c4.58,0,8.294-3.713,8.294-8.294V220.613z M159.24,307.618
	c-5.898-3.027-9.952-9.157-9.952-16.231c0-7.073,4.054-13.205,9.952-16.231V307.618z M159.24,257.557
	c-15.215,3.732-26.54,17.481-26.54,33.83s11.325,30.099,26.54,33.83v10.18c-20.744-3.901-36.492-22.149-36.492-44.01
	s15.748-40.107,36.492-44.01V257.557z M96.76,353.866c-14.939,0-27.093-12.154-27.093-27.093V256
	c0-14.939,12.154-27.093,27.093-27.093h62.479v1.682c-29.932,4.064-53.08,29.77-53.08,60.798s23.148,56.735,53.08,60.798v1.682
	H96.76z"/>
<path d="M300.233,230.013h-88.467c-9.452,0-17.14,7.689-17.14,17.14v88.467c0,9.452,7.689,17.14,17.14,17.14h88.467
	c9.452,0,17.14-7.689,17.14-17.14v-88.467C317.374,237.702,309.685,230.013,300.233,230.013z M211.214,247.153
	c0-0.305,0.248-0.553,0.553-0.553h88.467c0.305,0,0.553,0.248,0.553,0.553V265.4h-89.572V247.153z M300.233,336.173h-88.467
	c-0.305,0-0.553-0.248-0.553-0.553v-53.633h89.572v53.633C300.786,335.925,300.538,336.173,300.233,336.173z"/>
<path d="M273.693,300.786h-35.387c-4.58,0-8.294,3.713-8.294,8.294s3.713,8.294,8.294,8.294h35.387c4.58,0,8.294-3.713,8.294-8.294
	S278.274,300.786,273.693,300.786z"/>
<g>
</g>
<g>
</g>
<g>
</g>
<g>
</g>
<g>
</g>
<g>
</g>
<g>
</g>
<g>
</g>
<g>
</g>
<g>
</g>
<g>
</g>
<g>
</g>
<g>
</g>
<g>
</g>
<g>
</g>
</svg>
